PathFileType  4	(X/Y/Z) C:\Users\antoi\Documents\MyRepositories\mobilecap\ResultsAnalysis
DataRate	CameraRate	NumFrames	NumMarkers	Units	OrigDataRate	OrigDataStartFrame	OrigNumFrames
100.0	100.0	5	55	mm	100.0	126	502
Frame#	Time	r_knee			r_shank_antsup			r_ankle			r_calc			r_5meta			r_toe			L_knee			L_shank_antsup			L_ankle			L_calc			L_5meta			L_toe			r_mknee			r_mankle			L_mknee			L_mankle			r_sh2			r_sh3			r_sh4			L_sh2			L_sh3			r_thigh1			r_thigh2			r_thigh3			r_thigh4			r_thigh5			L_thigh1			L_thigh2			L_thigh3			L_thigh4			r.ASIS			r.PSIS			L.ASIS			L.PSIS			C7			R_Shoulder			L_Shoulder			R_Sternum			L_Sternum			R_humerus			R_elbow_med			R_elbow_lat			R_forearm			R_wrist_radius			R_wrist_ulna			L_humerus			L_elbow_med			L_elbow_lat			L_forearm			L_wrist_radius			L_wrist_ulna			R_HJC			L_HJC			R_HJC_reg			L_HJC_reg			
		X1	Y1	Z1	X2	Y2	Z2	X3	Y3	Z3	X4	Y4	Z4	X5	Y5	Z5	X6	Y6	Z6	X7	Y7	Z7	X8	Y8	Z8	X9	Y9	Z9	X10	Y10	Z10	X11	Y11	Z11	X12	Y12	Z12	X13	Y13	Z13	X14	Y14	Z14	X15	Y15	Z15	X16	Y16	Z16	X17	Y17	Z17	X18	Y18	Z18	X19	Y19	Z19	X20	Y20	Z20	X21	Y21	Z21	X22	Y22	Z22	X23	Y23	Z23	X24	Y24	Z24	X25	Y25	Z25	X26	Y26	Z26	X27	Y27	Z27	X28	Y28	Z28	X29	Y29	Z29	X30	Y30	Z30	X31	Y31	Z31	X32	Y32	Z32	X33	Y33	Z33	X34	Y34	Z34	X35	Y35	Z35	X36	Y36	Z36	X37	Y37	Z37	X38	Y38	Z38	X39	Y39	Z39	X40	Y40	Z40	X41	Y41	Z41	X42	Y42	Z42	X43	Y43	Z43	X44	Y44	Z44	X45	Y45	Z45	X46	Y46	Z46	X47	Y47	Z47	X48	Y48	Z48	X49	Y49	Z49	X50	Y50	Z50	X51	Y51	Z51	X52	Y52	Z52	X53	Y53	Z53	X54	Y54	Z54	X55	Y55	Z55	

126	1.25000000	-271.45654	541.89886	-446.72223	-247.22081	466.18201	-433.41992	-289.24399	101.95315	-442.92705	-349.74336	51.77201	-483.65168	-144.87069	38.39918	-410.39460	-113.48879	61.90237	-472.89638	-267.04604	541.34291	-768.86718	-240.70255	424.92139	-779.80444	-297.56244	98.70349	-758.79317	-364.33872	52.63707	-718.30102	-144.82052	33.18639	-792.47074	-119.65375	59.40505	-727.49410	-270.98335	535.65341	-570.52147	-263.68640	114.52808	-534.08377	-270.90489	543.49671	-642.29209	-270.51407	114.90440	-666.28851	-245.09951	353.65247	-421.76472	-320.57774	466.62901	-410.86716	-325.72332	350.54863	-407.94944	-327.91909	437.01043	-797.67440	-329.50805	315.86957	-796.62744	-189.74620	860.44847	-430.05492	-183.99265	749.05159	-441.52265	-236.01329	719.24452	-411.61460	-302.90366	849.33482	-423.69791	-289.36342	732.30065	-422.66791	-180.04043	864.36712	-786.95303	-180.74783	724.62225	-783.10564	-299.15558	859.68924	-802.60684	-289.02859	720.25059	-795.58412	-162.87396	1049.06742	-477.73861	-348.54868	1108.16508	-565.27780	-154.07645	1045.85232	-741.65096	-345.26619	1109.58312	-669.22754	-357.28816	1605.75812	-622.82373	-293.52251	1568.64972	-444.00691	-293.82687	1583.32125	-781.40525	-203.40245	1553.05737	-588.35570	-200.98232	1550.04409	-641.99128	-301.24981	1294.86601	-361.63128	-334.54676	1205.09424	-437.66982	-320.87383	1208.46314	-355.37478	-250.41522	1065.97947	-337.21249	-203.08077	960.00705	-344.86917	-246.20896	956.09961	-332.04173	-275.92940	1322.14600	-868.37903	-323.75570	1233.46296	-812.89957	-293.50438	1234.86290	-873.25977	-230.36873	1075.57096	-884.75477	-191.69124	984.14336	-871.23470	-225.98446	974.44753	-887.93488	-256.05325	979.94742	-490.05033	-245.73524	978.00266	-720.17894	-242.85546	976.96086	-518.81927	-237.35498	979.33711	-693.00808	
127	1.26000000	-271.46055	541.92857	-446.71845	-247.22383	466.19267	-433.42104	-289.17851	102.03853	-442.85341	-349.77714	51.75509	-483.74862	-144.91767	38.42015	-410.31987	-113.49502	61.85275	-472.88771	-267.03853	541.29472	-768.87499	-240.70484	424.87939	-779.83332	-297.54138	98.67008	-758.84930	-364.25830	52.60329	-718.33797	-144.84237	33.16792	-792.50453	-119.64298	59.41993	-727.53380	-270.99533	535.64602	-570.53362	-263.70384	114.48817	-534.08966	-270.91157	543.50914	-642.29048	-270.52819	114.90778	-666.27248	-245.02882	353.67767	-421.74894	-320.67454	466.51629	-410.88399	-325.49477	350.36864	-407.65516	-327.87105	437.00222	-797.73465	-329.50927	315.80570	-796.65440	-189.76390	860.48204	-430.05036	-183.96401	749.07339	-441.51278	-235.96094	719.31617	-411.59065	-302.90246	849.31932	-423.70320	-289.37535	732.28299	-422.66255	-180.03716	864.37418	-786.95370	-180.73794	724.58342	-783.12279	-299.11171	859.62720	-802.60876	-289.02691	720.25029	-795.57734	-162.85504	1049.06103	-477.72590	-348.51148	1108.09872	-565.31393	-154.02218	1045.81021	-741.67223	-345.23029	1109.54810	-669.31206	-357.29506	1605.69723	-622.83088	-293.52541	1568.67296	-443.98719	-293.84859	1583.27797	-781.42629	-203.40870	1553.01281	-588.36027	-201.00588	1550.01553	-642.02317	-301.27721	1294.79898	-361.64529	-334.32998	1204.91334	-437.85141	-320.87798	1208.46456	-355.38751	-250.45592	1065.88597	-337.20256	-203.11663	959.98371	-344.89874	-246.24058	956.01428	-332.08255	-275.97281	1322.08375	-868.39721	-323.75862	1233.39896	-812.91470	-293.54298	1234.80080	-873.23692	-230.41767	1075.53448	-884.78195	-191.76063	984.08111	-871.23965	-226.03063	974.38834	-887.93232	-256.02667	979.92240	-490.07299	-245.66675	977.95494	-720.19953	-242.79127	976.86704	-518.83007	-237.29484	979.29495	-693.04178	
128	1.27000000	-271.46278	541.98078	-446.73740	-247.24565	466.12496	-433.38439	-289.22173	102.02074	-442.83447	-349.78205	51.76086	-483.75681	-144.94236	38.36740	-410.32053	-113.49382	61.82334	-472.81984	-267.03010	541.32547	-768.87187	-240.67809	424.93537	-779.83160	-297.54192	98.69659	-758.83726	-364.30340	52.58021	-718.23957	-144.83950	33.19832	-792.49948	-119.66919	59.44428	-727.54848	-270.99186	535.67206	-570.53312	-263.68719	114.54352	-534.07373	-270.90909	543.51329	-642.29476	-270.56547	114.88252	-666.26924	-244.99141	353.67351	-421.74789	-320.70718	466.40496	-410.88312	-325.37445	350.27162	-407.47812	-327.85394	437.03023	-797.77738	-329.50518	315.84639	-796.63916	-189.73749	860.46202	-430.04499	-183.94530	749.02651	-441.48149	-235.92328	719.35025	-411.50483	-302.92745	849.21407	-423.71933	-289.38480	732.21321	-422.64941	-180.02252	864.36293	-786.94996	-180.71038	724.60587	-783.12861	-299.09590	859.66063	-802.60897	-289.01006	720.28797	-795.60729	-162.81825	1049.03211	-477.69972	-348.49790	1108.03947	-565.26847	-153.95795	1045.84483	-741.66272	-345.18242	1109.49936	-669.29018	-357.29526	1605.71237	-622.82512	-293.55296	1568.63334	-444.02109	-293.87588	1583.29670	-781.41876	-203.43575	1553.00680	-588.35928	-201.00851	1550.03769	-642.02273	-301.27813	1294.72499	-361.65880	-334.24148	1204.84771	-437.92160	-320.87166	1208.44229	-355.40047	-250.48971	1065.77975	-337.26808	-203.14055	959.94907	-344.94196	-246.26838	955.93640	-332.14498	-276.00547	1322.09250	-868.39358	-323.79366	1233.37656	-812.93128	-293.56395	1234.81957	-873.22264	-230.46205	1075.54893	-884.80461	-191.82146	984.04407	-871.15571	-226.06790	974.40092	-887.92922	-255.96336	979.86706	-490.07031	-245.58800	977.95638	-720.19663	-242.75406	976.83526	-518.84062	-237.20115	979.28035	-693.06138	
129	1.28000000	-271.45613	542.01408	-446.75730	-247.24882	466.05372	-433.33021	-289.28326	101.95037	-442.90267	-349.75157	51.79751	-483.69224	-144.93246	38.25263	-410.41689	-113.48560	61.84257	-472.73892	-267.00898	541.43773	-768.85946	-240.63058	425.05926	-779.81718	-297.58282	98.77863	-758.71189	-364.34976	52.58188	-718.03897	-144.82042	33.29936	-792.45425	-119.67714	59.49567	-727.51199	-270.96705	535.75305	-570.51022	-263.64894	114.68061	-534.04238	-270.88992	543.49505	-642.30432	-270.57590	114.88239	-666.28438	-244.95212	353.63124	-421.74322	-320.70025	466.38443	-410.87838	-325.37144	350.31953	-407.51092	-327.87691	437.09180	-797.73491	-329.49122	315.98118	-796.58835	-189.70448	860.41693	-430.03701	-183.92591	748.88135	-441.38021	-235.92103	719.29753	-411.45394	-302.96228	849.07866	-423.79717	-289.36194	732.17991	-422.60901	-179.99404	864.33925	-786.93633	-180.66699	724.69332	-783.09386	-299.08321	859.78734	-802.60723	-288.97236	720.35714	-795.62376	-162.77827	1048.98985	-477.70556	-348.47288	1108.02611	-565.20013	-153.88776	1045.94479	-741.63088	-345.09244	1109.45811	-669.15420	-357.28466	1605.78926	-622.77682	-293.57948	1568.55247	-444.06300	-293.91022	1583.35768	-781.34686	-203.45809	1553.04152	-588.32172	-200.99508	1550.10378	-641.96332	-301.25927	1294.65281	-361.65898	-334.25361	1204.84065	-437.91689	-320.86178	1208.39236	-355.40208	-250.49469	1065.67451	-337.39612	-203.16451	959.87475	-345.00385	-246.24158	955.89154	-332.16208	-276.02347	1322.16625	-868.36763	-323.85117	1233.40409	-812.94808	-293.57522	1234.93783	-873.22521	-230.49856	1075.62867	-884.82691	-191.84387	984.05017	-871.04152	-226.10172	974.50195	-887.96529	-255.87396	979.80568	-490.06133	-245.50829	978.01209	-720.18903	-242.76016	976.91088	-518.87625	-237.09559	979.31042	-693.06870	
130	1.29000000	-271.42796	542.02477	-446.75887	-247.20213	466.03245	-433.32448	-289.29450	101.84975	-443.00853	-349.71379	51.89115	-483.64403	-144.90693	38.13460	-410.51172	-113.47548	61.92698	-472.64689	-266.98439	541.62801	-768.83020	-240.58323	425.21855	-779.77713	-297.61544	98.96758	-758.59740	-364.28326	52.58766	-717.78075	-144.78268	33.46676	-792.36311	-119.67430	59.56779	-727.40321	-270.88401	535.73946	-570.45004	-263.61043	114.87058	-533.99784	-270.86556	543.46284	-642.31023	-270.51493	114.96184	-666.31995	-244.88866	353.58284	-421.72451	-320.67383	466.38596	-410.87092	-325.33746	350.37827	-407.57718	-327.87472	437.22676	-797.67797	-329.49442	316.15520	-796.51726	-189.71047	860.37071	-430.04097	-183.89551	748.75126	-441.26983	-235.93638	719.20512	-411.49445	-302.94437	849.01970	-423.87541	-289.32823	732.15695	-422.61735	-179.95420	864.30365	-786.92422	-180.61422	724.84781	-783.02854	-299.05563	859.98720	-802.58381	-288.93300	720.47467	-795.53343	-162.74668	1048.93640	-477.73730	-348.43197	1108.03616	-565.14470	-153.82264	1046.10128	-741.57986	-344.99969	1109.46925	-669.00283	-357.28987	1605.89435	-622.66250	-293.59182	1568.48870	-444.08856	-293.94750	1583.43942	-781.23490	-203.44627	1553.07927	-588.22754	-200.97364	1550.21285	-641.90849	-301.25599	1294.58665	-361.68831	-334.27827	1204.83810	-437.90901	-320.86679	1208.33402	-355.42029	-250.46102	1065.57531	-337.50252	-203.17824	959.78032	-345.06700	-246.19912	955.86044	-332.18544	-276.02733	1322.26594	-868.29029	-323.90464	1233.46151	-812.92990	-293.59127	1235.10762	-873.22405	-230.51693	1075.75529	-884.83146	-191.84234	984.12128	-870.94320	-226.14551	974.68150	-888.02705	-255.79547	979.74375	-490.07841	-245.43311	978.12449	-720.20754	-242.76207	977.00391	-518.94002	-237.00727	979.40672	-693.07407	
